<?xml version="1.0" encoding="UTF-8"?>
<svg id="_Слой_2" data-name="Слой 2" xmlns="http://www.w3.org/2000/svg" viewBox="0 0 457.77 310.51">
  <defs>
    <style>
      .cls-1 {
        fill: #fff;
      }
    </style>
  </defs>
  <g id="_Слой_1-2" data-name="Слой 1">
    <g>
      <path class="cls-1" d="M291.38,305.62c-52.17-13.15-85.6-55.34-90.24-108.1-2.99-33.93,3.58-56.68-11.2-90.82-14.1-32.57-44.32-53.95-80.18-54.11l-52.07-.23v205.29s51.18-.09,51.18-.09c15.12-.8,29.05-3.85,42.35-10.78,18.26-9.71,31.59-25.37,39.47-44.47,3.06,23.75,10.23,45.38,24.24,64.15-17.03,17.81-38.07,30.11-61.61,36.73-14.48,4.11-28.24,5.92-43.51,6.59l-109.79-.02V.02s110.75.26,110.75.26c28.91.07,55.66,8.55,79.98,23.36,50.09,33.41,68.47,84.12,67.29,142.92-.27,13.45.1,25.86,2.99,38.81,9.14,41.09,46.52,58.35,86.49,50.74,21.82-4.15,39.18-19.3,46.71-40.11,3.98-11.01,5.04-21.57,5.8-33.58l.03-182.39,57.72-.04-.02,179.45c-.08,15.05-1.28,28.6-5.13,42.73-19.4,71.32-92.02,100.89-161.25,83.44Z"/>
      <path class="cls-1" d="M257.86,91.9c-11.99-30.97-30.88-56.21-57.47-74.7l-.05-17.18h57.73s-.21,91.88-.21,91.88Z"/>
    </g>
  </g>
</svg>