<?xml version="1.0" encoding="utf-8"?>
<!-- Generator: Adobe Illustrator 30.2.1, SVG Export Plug-In . SVG Version: 9.03 Build 0)  -->
<svg version="1.0" id="Слой_1" xmlns="http://www.w3.org/2000/svg" xmlns:xlink="http://www.w3.org/1999/xlink" x="0px" y="0px"
	 viewBox="0 0 1000 1000" style="enable-background:new 0 0 1000 1000;" xml:space="preserve">
<style type="text/css">
	.st0{fill:#FFFFFF;}
</style>
<g transform="translate(0.000000,1000.000000) scale(0.100000,-0.100000)">
	<path class="st0" d="M3140,9994c-525-18-999-69-1317-140C668,9596,195,8980,51,7550C6,7109,5,7041,5,5000s1-2109,46-2550
		C216,812,812,216,2450,51C2891,6,2959,5,5000,5s2109,1,2550,46c1638,165,2234,761,2399,2399c45,441,46,509,46,2550s-1,2109-46,2550
		c-165,1638-763,2236-2401,2399c-432,43-455,44-2423,46C4080,9996,3187,9995,3140,9994z M5458,8764c1253-128,2362-897,2932-2034
		c426-850,525-1862,269-2760c-75-265-145-445-269-689c-516-1022-1482-1755-2600-1975c-268-53-370-61-740-61c-367,0-464,7-672,51
		c-282,59-513,164-830,376c-82,54-127,78-147,78c-24,0-49-17-113-76c-204-186-491-338-786-415c-152-40-359-51-462-25
		c-134,34-211,93-258,194c-23,50-26,77-38,267c-22,355-57,569-159,965c-29,113-84,329-123,480c-190,735-255,1201-255,1835
		c-1,323,12,478,58,731c280,1515,1475,2701,3029,3003C4685,8785,5071,8804,5458,8764z"/>
	<path class="st0" d="M4752,6905c-760-116-1332-675-1531-1497c-66-273-86-488-78-861c10-517,96-969,234-1239c52-101,98-148,146-148
		c72,0,234,102,406,254c56,50,81,66,104,66c17,0,66-21,117-51c396-228,803-296,1245-208c357,72,726,276,985,545
		c318,331,496,737,525,1199c12,191-24,452-92,655c-213,640-760,1125-1428,1266c-101,22-153,26-330,29C4907,6918,4818,6915,4752,6905
		z"/>
</g>
</svg>
